<svg width="95" height="111" viewBox="0 0 95 111" fill="none" xmlns="http://www.w3.org/2000/svg">
<path d="M33.3507 110.179C23.5386 112.264 17.3479 108.165 15.2526 98.3073L0.546076 29.1186C-1.55903 19.2148 2.43886 12.9978 12.2509 10.9122L23.4385 8.53418C25.2266 8.15409 26.5999 9.20401 26.98 10.9922L27.136 11.7258C28.4127 17.7322 33.2633 20.4871 39.499 19.1616C45.7347 17.8362 49.0913 13.3369 47.8146 7.33041L47.6587 6.5968C47.2786 4.80863 48.0603 3.30065 49.8943 2.91082L61.0819 0.532828C70.8939 -1.55279 77.0749 2.5007 79.18 12.4044L93.8865 81.5931C95.9818 91.451 91.9937 97.7139 82.1817 99.7995L33.3507 110.179ZM27.2357 44.4355L61.0735 37.243C62.7242 36.8922 63.6892 35.3452 63.3286 33.6487C62.9778 31.9981 61.4767 31.0233 59.8261 31.3741L25.9883 38.5666C24.2918 38.9272 23.2711 40.438 23.622 42.0886C23.9826 43.7851 25.5393 44.7961 27.2357 44.4355ZM30.6858 60.6666L47.0545 57.1873C48.7509 56.8267 49.716 55.2798 49.3749 53.675C49.0143 51.9785 47.5035 50.9578 45.807 51.3184L29.4383 54.7977C27.7418 55.1583 26.7309 56.715 27.0915 58.4115C27.4326 60.0163 28.9893 61.0272 30.6858 60.6666Z" fill="#EA580C"/>
<path d="M30.6858 60.6666L47.0545 57.1873C48.7509 56.8267 49.716 55.2798 49.3749 53.675C49.0143 51.9785 47.5035 50.9578 45.807 51.3184L29.4383 54.7977C27.7418 55.1583 26.7309 56.715 27.0915 58.4115C27.4326 60.0163 28.9893 61.0272 30.6858 60.6666Z" fill="#C2410C"/>
<path d="M27.2357 44.4355L61.0735 37.243C62.7242 36.8922 63.6892 35.3452 63.3286 33.6487C62.9778 31.9981 61.4767 31.0233 59.8261 31.3741L25.9883 38.5666C24.2918 38.9272 23.2711 40.438 23.622 42.0886C23.9826 43.7851 25.5393 44.7961 27.2357 44.4355Z" fill="#C2410C"/>
</svg>
