<svg width="1500" height="522" viewBox="0 0 1500 522" fill="none" xmlns="http://www.w3.org/2000/svg">
<g clip-path="url(#clip0_207_944)">
<path d="M734.974 -25.5635C740.878 -24.8387 745.804 -23.3293 749.751 -21.0353C752.469 -19.4562 754.723 -17.5053 756.514 -15.1826C760.85 -9.55801 762.402 -1.72913 761.17 8.30403L743.2 154.653C741.96 164.751 738.557 172.004 732.989 176.412C727.349 180.877 719.546 182.498 709.578 181.274L685.077 178.266C683.405 178.06 682.154 177.352 681.323 176.14C680.421 174.985 680.076 173.539 680.289 171.802C680.313 171.609 680.341 171.384 680.372 171.127C680.404 170.87 680.432 170.645 680.455 170.452C681.221 164.213 679.896 159.056 676.48 154.981C672.992 150.962 668.064 148.561 661.698 147.78C655.331 146.998 650.002 148.139 645.709 151.202C641.344 154.322 638.779 159.002 638.013 165.24C637.989 165.433 637.961 165.658 637.93 165.916C637.898 166.173 637.871 166.398 637.847 166.591C637.634 168.327 636.982 169.651 635.891 170.562C634.727 171.529 633.31 171.909 631.638 171.704L607.137 168.696C597.169 167.472 590.022 164.016 585.694 158.327C581.294 152.694 579.714 144.829 580.954 134.732L598.923 -11.6174C600.155 -21.6505 603.587 -28.8675 609.219 -33.2682C611.49 -35.0903 614.126 -36.4397 617.126 -37.3164C621.49 -38.5919 626.626 -38.867 632.533 -38.1417L734.974 -25.5635ZM703.741 107.602L630.527 98.6121C628.855 98.4068 627.402 98.8158 626.166 99.8393C624.867 100.855 624.11 102.231 623.897 103.967C623.692 105.64 624.101 107.093 625.124 108.329C626.075 109.621 627.386 110.369 629.058 110.575L702.272 119.564C704.008 119.777 705.526 119.376 706.826 118.361C708.053 117.401 708.77 116.086 708.975 114.414C709.188 112.677 708.819 111.163 707.868 109.871C706.853 108.571 705.477 107.815 703.741 107.602ZM707.946 73.3537L673.317 69.1018C671.58 68.8886 670.098 69.2616 668.871 70.2207C667.571 71.2362 666.819 72.5801 666.613 74.2523C666.408 75.9245 666.813 77.4105 667.828 78.7103C668.78 80.0022 670.123 80.7547 671.86 80.9679L706.489 85.2199C708.225 85.4331 709.743 85.0319 711.043 84.0163C712.278 82.9929 712.998 81.6451 713.204 79.9729C713.409 78.3007 713.036 76.8186 712.085 75.5267C711.062 74.2913 709.682 73.5669 707.946 73.3537Z" fill="#DC2626"/>
<path d="M603.862 -45.2499C609.42 -43.1331 613.842 -40.4886 617.126 -37.3164C619.387 -35.1327 621.108 -32.699 622.291 -30.0151C625.155 -23.5162 624.788 -15.5434 621.192 -6.09655L568.725 131.7C565.105 141.208 560.065 147.435 553.604 150.383C547.06 153.369 539.095 153.074 529.71 149.5L506.641 140.715C505.067 140.116 504.022 139.128 503.505 137.753C502.906 136.415 502.917 134.929 503.54 133.294C503.609 133.112 503.689 132.9 503.782 132.658C503.874 132.416 503.954 132.204 504.024 132.022C506.26 126.148 506.208 120.824 503.866 116.049C501.441 111.312 497.231 107.802 491.236 105.519C485.242 103.236 479.794 103.069 474.893 105.016C469.909 107 466.298 110.93 464.062 116.804C463.992 116.985 463.912 117.197 463.82 117.439C463.727 117.682 463.647 117.894 463.577 118.075C462.955 119.71 462.005 120.839 460.728 121.462C459.367 122.123 457.9 122.153 456.325 121.554L433.256 112.769C423.871 109.195 417.759 104.128 414.918 97.5686C411.993 91.0466 412.341 83.032 415.961 73.5246L468.428 -64.2721C472.025 -73.7189 477.084 -79.9048 483.605 -82.8297C486.246 -84.0552 489.128 -84.7346 492.251 -84.8679C496.794 -85.0617 501.846 -84.0995 507.408 -81.9815L603.862 -45.2499ZM541.671 76.571L472.737 50.3193C471.163 49.7198 469.653 49.7691 468.209 50.4671C466.704 51.1421 465.64 52.2971 465.018 53.9321C464.418 55.5066 464.468 57.0161 465.166 58.4606C465.78 59.9426 466.874 60.9834 468.448 61.5829L537.383 87.8345C539.018 88.4571 540.588 88.4309 542.092 87.7559C543.514 87.1184 544.524 86.0125 545.124 84.438C545.746 82.803 545.75 81.2445 545.136 79.7624C544.461 78.2574 543.306 77.1936 541.671 76.571ZM553.949 44.3246L521.344 31.9078C519.709 31.2852 518.181 31.2927 516.76 31.9301C515.255 32.6051 514.203 33.7298 513.603 35.3043C513.004 36.8788 513.041 38.4186 513.716 39.9236C514.331 41.4056 515.455 42.4579 517.09 43.0805L549.695 55.4973C551.33 56.1198 552.9 56.0936 554.405 55.4187C555.849 54.7206 556.871 53.5844 557.471 52.0099C558.07 50.4354 558.063 48.9072 557.448 47.4252C556.751 45.9807 555.584 44.9472 553.949 44.3246Z" fill="#7C3AED"/>
<path d="M481.271 -95.7455C486.161 -92.3598 489.821 -88.7339 492.251 -84.8679C493.923 -82.2065 495.013 -79.4313 495.519 -76.5423C496.745 -69.5468 494.481 -61.8933 488.728 -53.5818L404.814 67.6542C399.024 76.0189 392.64 80.8593 385.662 82.1753C378.593 83.5077 370.93 81.3156 362.673 75.5992L342.377 61.5478C340.992 60.5889 340.213 59.38 340.041 57.9211C339.779 56.4785 340.146 55.038 341.141 53.5995C341.252 53.4396 341.381 53.2532 341.529 53.0401C341.676 52.8269 341.805 52.6405 341.916 52.4806C345.493 47.3126 346.716 42.1303 345.585 36.9339C344.363 31.7539 341.116 27.3383 335.842 23.6872C330.568 20.036 325.319 18.5692 320.094 19.2867C314.78 20.0207 310.334 22.9716 306.757 28.1397C306.646 28.2995 306.517 28.486 306.37 28.6991C306.222 28.9122 306.093 29.0987 305.982 29.2585C304.987 30.6971 303.794 31.566 302.405 31.8652C300.926 32.1809 299.494 31.8593 298.109 30.9004L277.812 16.849C269.555 11.1326 264.833 4.74996 263.644 -2.29885C262.365 -9.33125 264.621 -17.0298 270.411 -25.3946L354.325 -146.631C360.078 -154.942 366.47 -159.737 373.502 -161.016C376.359 -161.574 379.32 -161.544 382.384 -160.926C386.841 -160.027 391.517 -157.883 396.41 -154.496L481.271 -95.7455ZM391.738 7.65143L331.089 -34.3367C329.704 -35.2956 328.227 -35.609 326.657 -35.2769C325.034 -34.9818 323.725 -34.1149 322.73 -32.6764C321.771 -31.2912 321.457 -29.8137 321.789 -28.2441C322.031 -26.6582 322.845 -25.3857 324.23 -24.4268L384.879 17.5613C386.317 18.5571 387.848 18.9073 389.47 18.6122C391.003 18.3334 392.249 17.5014 393.207 16.1161C394.203 14.6776 394.58 13.1653 394.338 11.5794C394.043 9.95649 393.176 8.6472 391.738 7.65143ZM411.375 -20.7196L382.689 -40.5795C381.25 -41.5753 379.765 -41.9338 378.232 -41.655C376.61 -41.3599 375.319 -40.5196 374.36 -39.1344C373.401 -37.7491 373.07 -36.2451 373.365 -34.6222C373.606 -33.0362 374.446 -31.7454 375.885 -30.7496L404.571 -10.8896C406.01 -9.89384 407.54 -9.54356 409.163 -9.83874C410.732 -10.1708 411.996 -11.0294 412.955 -12.4147C413.914 -13.7999 414.272 -15.2855 414.031 -16.8715C413.699 -18.4411 412.813 -19.7238 411.375 -20.7196Z" fill="#2563EB"/>
<path d="M1103.43 -153.557C1108.33 -156.93 1113.01 -159.067 1117.49 -159.968C1120.57 -160.588 1123.55 -160.623 1126.43 -160.072C1133.41 -158.738 1139.76 -153.907 1145.49 -145.58L1229.08 -24.1221C1234.84 -15.742 1237.1 -8.05582 1235.86 -1.06357C1234.6 6.01879 1229.83 12.4072 1221.56 18.1017L1201.22 32.0991C1199.84 33.0543 1198.43 33.3538 1197.01 32.9974C1195.56 32.7312 1194.35 31.8776 1193.36 30.4364C1193.25 30.2763 1193.12 30.0894 1192.97 29.8759C1192.82 29.6624 1192.69 29.4756 1192.58 29.3155C1189.02 24.138 1184.61 21.1568 1179.35 20.372C1174.07 19.6774 1168.79 21.1486 1163.51 24.7858C1158.23 28.4229 1154.99 32.8115 1153.81 37.9515C1152.61 43.1816 1153.8 48.3855 1157.36 53.563C1157.47 53.7231 1157.6 53.9099 1157.74 54.1235C1157.89 54.337 1158.02 54.5238 1158.13 54.6839C1159.12 56.1251 1159.51 57.5482 1159.3 58.9533C1159.07 60.4485 1158.26 61.6737 1156.87 62.629L1136.54 76.6264C1128.27 82.3209 1120.62 84.4742 1113.61 83.0863C1106.58 81.7886 1100.19 76.9496 1094.42 68.5695L1010.84 -52.8888C1005.11 -61.2155 1002.89 -68.8934 1004.19 -75.9224C1004.68 -78.7925 1005.76 -81.5505 1007.42 -84.1965C1009.84 -88.0458 1013.5 -91.6578 1018.41 -95.0325L1103.43 -153.557ZM1168.34 -33.1702L1107.58 8.65681C1106.19 9.61202 1105.37 10.8823 1105.13 12.4676C1104.83 14.0897 1105.17 15.6213 1106.17 17.0625C1107.12 18.4503 1108.39 19.2672 1109.98 19.5133C1111.55 19.8496 1113.02 19.54 1114.41 18.5848L1175.17 -23.2421C1176.62 -24.2341 1177.49 -25.5411 1177.78 -27.1632C1178.07 -28.6951 1177.73 -30.155 1176.78 -31.5428C1175.78 -32.984 1174.5 -33.8726 1172.94 -34.2088C1171.31 -34.5083 1169.78 -34.1621 1168.34 -33.1702ZM1148.78 -61.5932L1120.04 -41.8094C1118.6 -40.8175 1117.74 -39.5555 1117.46 -38.0235C1117.16 -36.4015 1117.48 -34.8965 1118.44 -33.5087C1119.39 -32.121 1120.68 -31.2773 1122.3 -30.9779C1123.87 -30.6416 1125.38 -30.9695 1126.82 -31.9614L1155.56 -51.7452C1157 -52.7371 1157.87 -54.0442 1158.17 -55.6662C1158.42 -57.2516 1158.06 -58.7381 1157.11 -60.1259C1156.15 -61.5137 1154.89 -62.3757 1153.32 -62.7119C1151.74 -62.958 1150.22 -62.5851 1148.78 -61.5932Z" fill="#16A34A"/>
<path d="M992.233 -81.3379C997.797 -83.4399 1002.86 -84.3928 1007.42 -84.1965C1010.56 -84.0613 1013.46 -83.3816 1016.13 -82.1573C1022.58 -79.1922 1027.59 -72.9815 1031.16 -63.5251L1083.26 74.4103C1086.85 83.9273 1087.21 91.9314 1084.33 98.4227C1081.41 104.997 1075.25 110.059 1065.86 113.608L1042.76 122.332C1041.19 122.928 1039.75 122.882 1038.45 122.195C1037.11 121.591 1036.14 120.471 1035.52 118.834C1035.45 118.653 1035.37 118.44 1035.28 118.198C1035.19 117.955 1035.11 117.743 1035.04 117.561C1032.82 111.682 1029.25 107.731 1024.33 105.71C1019.37 103.773 1013.9 103.938 1007.89 106.205C1001.89 108.472 997.705 111.959 995.328 116.667C992.913 121.458 992.815 126.794 995.036 132.674C995.105 132.856 995.185 133.068 995.276 133.31C995.368 133.553 995.448 133.765 995.517 133.947C996.135 135.583 996.172 137.058 995.629 138.372C995.049 139.769 993.971 140.765 992.395 141.36L969.302 150.084C959.907 153.633 951.972 153.895 945.497 150.869C938.983 147.927 933.93 141.697 930.335 132.18L878.243 -5.75533C874.672 -15.2117 874.357 -23.1969 877.299 -29.7111C878.464 -32.3801 880.171 -34.8 882.42 -36.9707C885.692 -40.1286 890.112 -42.7592 895.679 -44.8625L992.233 -81.3379ZM1026.45 51.0888L957.448 77.1574C955.872 77.7527 954.775 78.7905 954.157 80.2709C953.478 81.7742 953.447 83.3441 954.065 84.9808C954.66 86.5569 955.698 87.6541 957.178 88.2724C958.621 88.9743 960.13 89.0276 961.706 88.4322L1030.71 62.3637C1032.35 61.7455 1033.51 60.6847 1034.18 59.1815C1034.83 57.7617 1034.85 56.2638 1034.25 54.6877C1033.64 53.0511 1032.61 51.8818 1031.16 51.1799C1029.66 50.501 1028.09 50.4706 1026.45 51.0888ZM1014.26 18.8099L981.624 31.1401C979.988 31.7583 978.849 32.7773 978.208 34.1971C977.529 35.7003 977.487 37.24 978.082 38.8161C978.677 40.3921 979.726 41.5196 981.229 42.1986C982.672 42.9005 984.211 42.9423 985.848 42.3241L1018.49 29.9939C1020.12 29.3757 1021.28 28.3149 1021.96 26.8116C1022.58 25.3313 1022.59 23.8031 1021.99 22.227C1021.4 20.6509 1020.38 19.512 1018.94 18.8101C1017.46 18.1918 1015.9 18.1917 1014.26 18.8099Z" fill="#FACC15"/>
<path d="M866.989 -37.8305C872.894 -38.5397 878.038 -38.2531 882.42 -36.9707C885.436 -36.0879 888.092 -34.7332 890.386 -32.9066C895.942 -28.4833 899.322 -21.2534 900.527 -11.217L918.099 135.179C919.311 145.28 917.742 153.137 913.391 158.75C908.983 164.435 901.794 167.876 891.823 169.074L867.314 172.017C865.642 172.218 864.257 171.829 863.161 170.852C862.008 169.946 861.328 168.624 861.119 166.887C861.096 166.694 861.069 166.469 861.038 166.212C861.007 165.954 860.98 165.729 860.957 165.536C860.208 159.296 857.687 154.606 853.395 151.466C849.047 148.399 843.688 147.248 837.319 148.013C830.951 148.778 826.049 151.161 822.614 155.163C819.123 159.237 817.751 164.394 818.5 170.635C818.524 170.828 818.551 171.053 818.582 171.31C818.612 171.568 818.639 171.793 818.663 171.986C818.871 173.723 818.555 175.164 817.713 176.309C816.815 177.527 815.53 178.236 813.858 178.437L789.349 181.38C779.378 182.577 771.611 180.932 766.047 176.444C760.427 172.029 757.011 164.771 755.799 154.67L738.227 8.27358C737.022 -1.76282 738.627 -9.59139 743.043 -15.2121C744.812 -17.5249 747.048 -19.466 749.751 -21.0353C753.684 -23.3184 758.605 -24.8147 764.514 -25.5243L866.989 -37.8305ZM868.527 98.9397L795.289 107.735C793.617 107.936 792.303 108.681 791.349 109.97C790.33 111.267 789.924 112.784 790.133 114.521C790.334 116.194 791.079 117.508 792.368 118.462C793.6 119.489 795.053 119.902 796.726 119.701L869.963 110.906C871.7 110.698 873.078 109.945 874.097 108.648C875.059 107.423 875.44 105.974 875.239 104.301C875.031 102.564 874.31 101.182 873.078 100.155C871.781 99.1363 870.264 98.7311 868.527 98.9397ZM864.415 64.6808L829.774 68.8408C828.037 69.0494 826.688 69.7662 825.725 70.9913C824.706 72.2884 824.297 73.7733 824.498 75.446C824.699 77.1187 825.448 78.4646 826.745 79.4836C827.977 80.5103 829.462 80.9194 831.199 80.7108L865.84 76.5508C867.576 76.3422 868.954 75.5894 869.973 74.2923C870.928 73.0029 871.305 71.5219 871.104 69.8491C870.903 68.1764 870.186 66.8267 868.954 65.8C867.665 64.8453 866.152 64.4723 864.415 64.6808Z" fill="#EA580C"/>
<path d="M707.946 73.3537L673.317 69.1018C671.58 68.8886 670.098 69.2616 668.871 70.2207C667.571 71.2362 666.819 72.5801 666.613 74.2523C666.408 75.9245 666.813 77.4105 667.828 78.7103C668.78 80.0022 670.123 80.7547 671.86 80.9679L706.489 85.2199C708.225 85.4331 709.743 85.0319 711.043 84.0163C712.278 82.9929 712.998 81.6451 713.204 79.9729C713.409 78.3007 713.036 76.8186 712.085 75.5267C711.062 74.2913 709.682 73.5669 707.946 73.3537Z" fill="#B91C1C"/>
<path d="M703.741 107.602L630.527 98.6121C628.855 98.4068 627.402 98.8158 626.166 99.8393C624.867 100.855 624.11 102.231 623.897 103.967C623.692 105.64 624.101 107.093 625.124 108.329C626.075 109.621 627.386 110.369 629.058 110.575L702.272 119.564C704.008 119.777 705.526 119.376 706.826 118.361C708.053 117.401 708.77 116.086 708.975 114.414C709.188 112.677 708.819 111.163 707.868 109.871C706.853 108.571 705.477 107.815 703.741 107.602Z" fill="#B91C1C"/>
<path d="M868.527 98.9397L795.289 107.735C793.617 107.936 792.303 108.681 791.349 109.97C790.33 111.267 789.924 112.784 790.133 114.521C790.334 116.194 791.079 117.508 792.368 118.462C793.6 119.489 795.053 119.902 796.726 119.701L869.963 110.906C871.7 110.698 873.078 109.945 874.097 108.648C875.059 107.423 875.44 105.974 875.239 104.301C875.031 102.564 874.31 101.182 873.078 100.155C871.781 99.1363 870.264 98.7311 868.527 98.9397Z" fill="#C2410C"/>
<path d="M864.415 64.6808L829.774 68.8408C828.037 69.0494 826.688 69.7662 825.725 70.9913C824.706 72.2884 824.297 73.7733 824.498 75.446C824.699 77.1187 825.448 78.4646 826.745 79.4836C827.977 80.5103 829.462 80.9194 831.199 80.7108L865.84 76.5508C867.576 76.3422 868.954 75.5894 869.973 74.2923C870.928 73.0029 871.305 71.5219 871.104 69.8491C870.903 68.1764 870.186 66.8267 868.954 65.8C867.665 64.8453 866.152 64.4723 864.415 64.6808Z" fill="#C2410C"/>
<path d="M1026.45 51.0888L957.448 77.1574C955.872 77.7527 954.775 78.7905 954.157 80.2709C953.478 81.7742 953.447 83.3441 954.065 84.9808C954.66 86.5569 955.698 87.6541 957.178 88.2724C958.621 88.9743 960.13 89.0276 961.706 88.4322L1030.71 62.3637C1032.35 61.7455 1033.51 60.6847 1034.18 59.1815C1034.83 57.7617 1034.85 56.2638 1034.25 54.6877C1033.64 53.0511 1032.61 51.8818 1031.16 51.1799C1029.66 50.501 1028.09 50.4706 1026.45 51.0888Z" fill="#CA8A04"/>
<path d="M1014.26 18.8099L981.624 31.1401C979.988 31.7583 978.849 32.7773 978.208 34.1971C977.529 35.7003 977.487 37.24 978.082 38.8161C978.677 40.3921 979.726 41.5196 981.229 42.1986C982.672 42.9005 984.211 42.9423 985.848 42.3241L1018.49 29.9939C1020.12 29.3757 1021.28 28.3149 1021.96 26.8116C1022.58 25.3313 1022.59 23.8031 1021.99 22.227C1021.4 20.6509 1020.38 19.512 1018.94 18.8101C1017.46 18.1918 1015.9 18.1917 1014.26 18.8099Z" fill="#CA8A04"/>
<path d="M1168.34 -33.1702L1107.58 8.65681C1106.19 9.61202 1105.37 10.8823 1105.13 12.4676C1104.83 14.0897 1105.17 15.6213 1106.17 17.0625C1107.12 18.4503 1108.39 19.2672 1109.98 19.5133C1111.55 19.8496 1113.02 19.54 1114.41 18.5848L1175.17 -23.2421C1176.62 -24.2341 1177.49 -25.5411 1177.78 -27.1632C1178.07 -28.6951 1177.73 -30.155 1176.78 -31.5428C1175.78 -32.984 1174.5 -33.8726 1172.94 -34.2088C1171.31 -34.5083 1169.78 -34.1621 1168.34 -33.1702Z" fill="#15803D"/>
<path d="M1148.78 -61.5932L1120.04 -41.8094C1118.6 -40.8175 1117.74 -39.5555 1117.46 -38.0235C1117.16 -36.4015 1117.48 -34.8965 1118.44 -33.5087C1119.39 -32.121 1120.68 -31.2773 1122.3 -30.9779C1123.87 -30.6416 1125.38 -30.9695 1126.82 -31.9614L1155.56 -51.7452C1157 -52.7371 1157.87 -54.0442 1158.17 -55.6662C1158.42 -57.2516 1158.06 -58.7381 1157.11 -60.1259C1156.15 -61.5137 1154.89 -62.3757 1153.32 -62.7119C1151.74 -62.958 1150.22 -62.5851 1148.78 -61.5932Z" fill="#15803D"/>
<path d="M553.949 44.3246L521.344 31.9078C519.709 31.2852 518.181 31.2927 516.76 31.9301C515.255 32.6051 514.203 33.7298 513.603 35.3043C513.004 36.8788 513.041 38.4186 513.716 39.9236C514.331 41.4056 515.455 42.4579 517.09 43.0805L549.695 55.4973C551.33 56.1198 552.9 56.0936 554.405 55.4187C555.849 54.7206 556.871 53.5844 557.471 52.0099C558.07 50.4354 558.063 48.9072 557.448 47.4252C556.751 45.9807 555.584 44.9472 553.949 44.3246Z" fill="#6D28D9"/>
<path d="M541.671 76.571L472.737 50.3193C471.163 49.7198 469.653 49.7691 468.209 50.4671C466.704 51.1421 465.64 52.2971 465.018 53.9321C464.418 55.5066 464.468 57.0161 465.166 58.4606C465.78 59.9426 466.874 60.9834 468.448 61.5829L537.383 87.8345C539.018 88.4571 540.588 88.4309 542.092 87.7559C543.514 87.1184 544.524 86.0125 545.124 84.438C545.746 82.803 545.75 81.2445 545.136 79.7624C544.461 78.2574 543.306 77.1936 541.671 76.571Z" fill="#6D28D9"/>
<path d="M391.738 7.65143L331.089 -34.3367C329.704 -35.2956 328.227 -35.609 326.657 -35.2769C325.034 -34.9818 323.725 -34.1149 322.73 -32.6764C321.771 -31.2912 321.457 -29.8137 321.789 -28.2441C322.031 -26.6582 322.845 -25.3857 324.23 -24.4268L384.879 17.5613C386.317 18.5571 387.848 18.9073 389.47 18.6122C391.003 18.3334 392.249 17.5014 393.207 16.1161C394.203 14.6776 394.58 13.1653 394.338 11.5794C394.043 9.95649 393.176 8.6472 391.738 7.65143Z" fill="#1D4ED8"/>
<path d="M411.375 -20.7196L382.689 -40.5795C381.25 -41.5753 379.765 -41.9338 378.232 -41.655C376.61 -41.3599 375.319 -40.5196 374.36 -39.1344C373.401 -37.7491 373.07 -36.2451 373.365 -34.6222C373.606 -33.0362 374.446 -31.7454 375.885 -30.7496L404.571 -10.8896C406.01 -9.89384 407.54 -9.54356 409.163 -9.83874C410.732 -10.1708 411.996 -11.0294 412.955 -12.4147C413.914 -13.7999 414.272 -15.2855 414.031 -16.8715C413.699 -18.4411 412.813 -19.7238 411.375 -20.7196Z" fill="#1D4ED8"/>
<path d="M609.886 229.932C609.886 227.511 611.216 226.182 613.636 226.182H636.068C652.125 226.182 660.682 235.966 660.682 249.295C660.682 262.727 652.023 272.409 635.898 272.409H622.534V292.25C622.534 294.67 621.205 296 618.784 296H613.636C611.216 296 609.886 294.67 609.886 292.25V229.932ZM622.534 262.011H634.193C643.602 262.011 647.795 256.727 647.795 249.295C647.795 241.864 643.602 236.75 634.125 236.75H622.534V262.011ZM677.573 297.057C667.584 297.057 660.05 291.602 660.05 281.307C660.05 269.511 669.766 266.477 679.925 265.386C689.164 264.398 692.88 264.227 692.88 260.682V260.477C692.88 255.33 689.743 252.398 684.016 252.398C679.618 252.398 676.584 254.034 674.777 256.284C673.448 258.023 672.255 258.909 670.107 258.602L665.982 258.023C663.357 257.648 662.096 255.841 663.357 253.455C667.073 246.5 674.573 242.955 683.948 242.955C693.936 242.955 705.221 247.114 705.221 260.955V292.25C705.221 294.67 703.891 296 701.471 296H697.107C694.686 296 693.357 294.705 693.357 292.386V288.807H692.948C690.698 293.205 685.789 297.057 677.573 297.057ZM671.948 281.102C671.948 285.636 675.63 287.989 680.777 287.989C688.209 287.989 692.914 283.045 692.914 277.216V271.045C691.311 272.341 684.834 273.159 681.596 273.602C676.073 274.386 671.948 276.364 671.948 281.102ZM743.291 258.364C741.143 258.602 739.984 257.648 738.722 255.841C737.154 253.727 734.461 252.159 730.438 252.159C725.291 252.159 721.37 254.614 721.404 258.159C721.37 261.193 723.484 263.034 728.802 264.227L737.734 266.136C747.62 268.284 752.427 272.852 752.461 280.318C752.427 290.239 743.188 297.023 730.097 297.023C719.12 297.023 711.62 292.864 708.722 285.636C707.734 283.216 709.166 281.545 711.722 281.307L716.393 280.864C718.575 280.659 719.7 281.648 720.893 283.557C722.631 286.318 725.768 287.716 730.063 287.716C735.927 287.716 739.813 285.023 739.813 281.443C739.813 278.477 737.563 276.534 732.756 275.477L723.825 273.602C713.768 271.523 709.063 266.477 709.097 258.841C709.063 249.159 717.654 242.955 730.268 242.955C740.597 242.955 747.279 246.977 750.143 253.523C751.166 255.943 749.802 257.648 747.211 257.92L743.291 258.364ZM788.298 258.364C786.15 258.602 784.991 257.648 783.73 255.841C782.162 253.727 779.469 252.159 775.446 252.159C770.298 252.159 766.378 254.614 766.412 258.159C766.378 261.193 768.491 263.034 773.809 264.227L782.741 266.136C792.628 268.284 797.434 272.852 797.469 280.318C797.434 290.239 788.196 297.023 775.105 297.023C764.128 297.023 756.628 292.864 753.73 285.636C752.741 283.216 754.173 281.545 756.73 281.307L761.4 280.864C763.582 280.659 764.707 281.648 765.9 283.557C767.639 286.318 770.775 287.716 775.071 287.716C780.934 287.716 784.821 285.023 784.821 281.443C784.821 278.477 782.571 276.534 777.764 275.477L768.832 273.602C758.775 271.523 754.071 266.477 754.105 258.841C754.071 249.159 762.662 242.955 775.275 242.955C785.605 242.955 792.287 246.977 795.15 253.523C796.173 255.943 794.809 257.648 792.219 257.92L788.298 258.364ZM812.306 292.25C812.306 294.67 810.976 296 808.556 296H803.715C801.294 296 799.965 294.67 799.965 292.25V229.932C799.965 227.511 801.294 226.182 803.715 226.182H808.556C810.976 226.182 812.306 227.511 812.306 229.932V292.25ZM840.498 297.023C824.714 297.023 815.066 286.557 815.066 270.125C815.066 253.966 824.85 242.955 839.85 242.955C852.736 242.955 863.782 251.034 863.782 269.409V269.443C863.782 271.864 862.452 273.193 860.032 273.193H827.305C827.407 282.159 832.691 287.409 840.668 287.409C844.759 287.409 848.134 286.045 850.214 283.386C851.543 281.648 852.77 280.761 854.884 281L859.043 281.477C861.668 281.784 863.032 283.216 862.18 285.159C858.975 292.42 851.202 297.023 840.498 297.023ZM827.339 264.875H851.952C851.884 257.75 847.111 252.568 840.02 252.568C832.657 252.568 827.714 258.193 827.339 264.875ZM892.69 249.432C892.69 251.852 891.36 253.182 888.94 253.182H882.36V280.25C882.36 285.227 884.849 286.318 887.951 286.318H888.019C889.213 286.318 891.804 287.034 892.315 289.352L892.86 291.875C893.372 294.227 892.451 295.966 890.065 296.375C889.008 296.545 887.781 296.682 886.383 296.716C877.11 296.989 869.951 292.148 870.019 282.295V253.182H866.338C863.917 253.182 862.588 251.852 862.588 249.432V247.386C862.588 244.966 863.917 243.636 866.304 243.636H870.019V234.841C870.019 232.42 871.349 231.091 873.769 231.091H878.61C881.031 231.091 882.36 232.42 882.36 234.841V243.636H888.94C891.36 243.636 892.69 244.966 892.69 247.386V249.432Z" fill="#181818"/>
<path d="M766.007 547.804C760.103 547.079 755.178 545.569 751.23 543.275C748.512 541.696 746.258 539.745 744.468 537.423C740.132 531.798 738.58 523.969 739.812 513.936L757.781 367.587C759.021 357.489 762.425 350.236 767.992 345.828C773.632 341.363 781.436 339.742 791.404 340.966L815.904 343.974C817.576 344.18 818.828 344.888 819.658 346.1C820.561 347.255 820.905 348.701 820.692 350.438C820.668 350.631 820.641 350.856 820.609 351.113C820.577 351.37 820.55 351.595 820.526 351.788C819.76 358.027 821.085 363.184 824.501 367.259C827.99 371.278 832.917 373.679 839.284 374.46C845.65 375.242 850.98 374.101 855.272 371.038C859.637 367.918 862.203 363.238 862.969 357C862.992 356.807 863.02 356.582 863.052 356.324C863.083 356.067 863.111 355.842 863.135 355.649C863.348 353.913 864 352.589 865.091 351.678C866.254 350.711 867.672 350.331 869.344 350.536L893.845 353.544C903.812 354.768 910.96 358.224 915.288 363.913C919.688 369.546 921.268 377.411 920.028 387.508L902.058 533.857C900.827 543.891 897.395 551.107 891.763 555.508C889.491 557.33 886.856 558.68 883.856 559.556C879.491 560.832 874.355 561.107 868.448 560.382L766.007 547.804ZM797.241 414.638L870.454 423.628C872.126 423.833 873.58 423.424 874.815 422.401C876.115 421.385 876.871 420.009 877.085 418.273C877.29 416.6 876.881 415.147 875.858 413.911C874.907 412.619 873.595 411.871 871.923 411.665L798.71 402.676C796.973 402.463 795.455 402.864 794.156 403.879C792.928 404.838 792.212 406.154 792.006 407.826C791.793 409.563 792.162 411.077 793.113 412.369C794.129 413.669 795.504 414.425 797.241 414.638ZM793.036 448.886L827.665 453.138C829.401 453.351 830.883 452.978 832.111 452.019C833.41 451.004 834.163 449.66 834.368 447.988C834.573 446.316 834.168 444.83 833.153 443.53C832.202 442.238 830.858 441.485 829.122 441.272L794.493 437.02C792.756 436.807 791.238 437.208 789.939 438.224C788.703 439.247 787.983 440.595 787.778 442.267C787.572 443.939 787.945 445.421 788.896 446.713C789.92 447.949 791.299 448.673 793.036 448.886Z" fill="#DC2626"/>
<path d="M897.12 567.49C891.561 565.373 887.14 562.729 883.856 559.556C881.595 557.373 879.873 554.939 878.69 552.255C875.826 545.756 876.193 537.783 879.79 528.337L932.256 390.54C935.876 381.032 940.917 374.805 947.377 371.857C953.922 368.871 961.886 369.166 971.271 372.74L994.34 381.525C995.915 382.124 996.96 383.112 997.476 384.487C998.076 385.825 998.064 387.311 997.442 388.946C997.373 389.128 997.292 389.34 997.2 389.582C997.108 389.824 997.027 390.036 996.958 390.218C994.721 396.092 994.774 401.416 997.116 406.191C999.541 410.928 1003.75 414.438 1009.74 416.721C1015.74 419.004 1021.19 419.171 1026.09 417.224C1031.07 415.24 1034.68 411.31 1036.92 405.436C1036.99 405.255 1037.07 405.043 1037.16 404.801C1037.25 404.558 1037.33 404.346 1037.4 404.165C1038.03 402.53 1038.98 401.401 1040.25 400.778C1041.61 400.117 1043.08 400.087 1044.66 400.686L1067.73 409.471C1077.11 413.045 1083.22 418.112 1086.06 424.671C1088.99 431.193 1088.64 439.208 1085.02 448.715L1032.55 586.512C1028.96 595.959 1023.9 602.145 1017.38 605.07C1014.74 606.295 1011.85 606.975 1008.73 607.108C1004.19 607.302 999.135 606.34 993.573 604.221L897.12 567.49ZM959.31 445.669L1028.24 471.921C1029.82 472.52 1031.33 472.471 1032.77 471.773C1034.28 471.098 1035.34 469.943 1035.96 468.308C1036.56 466.733 1036.51 465.224 1035.82 463.779C1035.2 462.297 1034.11 461.257 1032.53 460.657L963.599 434.405C961.964 433.783 960.394 433.809 958.889 434.484C957.468 435.122 956.457 436.228 955.858 437.802C955.235 439.437 955.231 440.996 955.846 442.478C956.52 443.983 957.675 445.046 959.31 445.669ZM947.032 477.915L979.637 490.332C981.272 490.955 982.8 490.947 984.222 490.31C985.727 489.635 986.779 488.51 987.378 486.936C987.978 485.361 987.94 483.821 987.265 482.316C986.651 480.834 985.526 479.782 983.891 479.159L951.286 466.743C949.651 466.12 948.081 466.146 946.577 466.821C945.132 467.519 944.11 468.656 943.511 470.23C942.911 471.805 942.919 473.333 943.533 474.815C944.231 476.259 945.397 477.293 947.032 477.915Z" fill="#7C3AED"/>
<path d="M1019.71 617.985C1014.82 614.6 1011.16 610.974 1008.73 607.108C1007.06 604.446 1005.97 601.671 1005.46 598.782C1004.24 591.787 1006.5 584.133 1012.25 575.822L1096.17 454.586C1101.96 446.221 1108.34 441.381 1115.32 440.065C1122.39 438.732 1130.05 440.924 1138.31 446.641L1158.6 460.692C1159.99 461.651 1160.77 462.86 1160.94 464.319C1161.2 465.761 1160.84 467.202 1159.84 468.641C1159.73 468.8 1159.6 468.987 1159.45 469.2C1159.31 469.413 1159.18 469.6 1159.07 469.759C1155.49 474.927 1154.27 480.11 1155.4 485.306C1156.62 490.486 1159.87 494.902 1165.14 498.553C1170.41 502.204 1175.66 503.671 1180.89 502.953C1186.2 502.219 1190.65 499.268 1194.22 494.1C1194.34 493.94 1194.46 493.754 1194.61 493.541C1194.76 493.328 1194.89 493.141 1195 492.981C1195.99 491.543 1197.19 490.674 1198.58 490.375C1200.06 490.059 1201.49 490.381 1202.87 491.34L1223.17 505.391C1231.43 511.107 1236.15 517.49 1237.34 524.539C1238.62 531.571 1236.36 539.27 1230.57 547.635L1146.66 668.871C1140.9 677.182 1134.51 681.977 1127.48 683.256C1124.62 683.814 1121.66 683.784 1118.6 683.166C1114.14 682.267 1109.46 680.123 1104.57 676.736L1019.71 617.985ZM1109.24 514.589L1169.89 556.577C1171.28 557.536 1172.75 557.849 1174.32 557.517C1175.95 557.222 1177.26 556.355 1178.25 554.916C1179.21 553.531 1179.52 552.054 1179.19 550.484C1178.95 548.898 1178.14 547.626 1176.75 546.667L1116.1 504.679C1114.66 503.683 1113.13 503.333 1111.51 503.628C1109.98 503.907 1108.73 504.739 1107.77 506.124C1106.78 507.562 1106.4 509.075 1106.64 510.661C1106.94 512.283 1107.81 513.593 1109.24 514.589ZM1089.61 542.96L1118.29 562.82C1119.73 563.815 1121.22 564.174 1122.75 563.895C1124.37 563.6 1125.66 562.76 1126.62 561.374C1127.58 559.989 1127.91 558.485 1127.62 556.862C1127.38 555.276 1126.53 553.985 1125.1 552.99L1096.41 533.13C1094.97 532.134 1093.44 531.784 1091.82 532.079C1090.25 532.411 1088.99 533.269 1088.03 534.655C1087.07 536.04 1086.71 537.526 1086.95 539.112C1087.28 540.681 1088.17 541.964 1089.61 542.96Z" fill="#2563EB"/>
<path d="M397.554 675.797C392.655 679.17 387.967 681.307 383.491 682.208C380.41 682.828 377.429 682.863 374.548 682.312C367.573 680.978 361.221 676.147 355.491 667.82L271.906 546.362C266.139 537.982 263.878 530.296 265.122 523.304C266.383 516.221 271.15 509.833 279.422 504.138L299.757 490.141C301.144 489.186 302.551 488.886 303.976 489.243C305.417 489.509 306.634 490.362 307.626 491.804C307.736 491.964 307.865 492.151 308.012 492.364C308.159 492.578 308.287 492.764 308.397 492.924C311.96 498.102 316.372 501.083 321.631 501.868C326.907 502.563 332.187 501.091 337.47 497.454C342.754 493.817 345.987 489.429 347.169 484.288C348.368 479.058 347.185 473.855 343.622 468.677C343.512 468.517 343.384 468.33 343.237 468.117C343.09 467.903 342.961 467.716 342.851 467.556C341.859 466.115 341.47 464.692 341.682 463.287C341.912 461.791 342.721 460.566 344.108 459.611L364.443 445.614C372.715 439.919 380.357 437.766 387.369 439.154C394.397 440.451 400.794 445.29 406.561 453.67L490.146 575.129C495.876 583.456 498.093 591.133 496.795 598.162C496.303 601.033 495.225 603.791 493.56 606.436C491.139 610.286 487.477 613.898 482.574 617.273L397.554 675.797ZM332.64 555.41L393.403 513.583C394.79 512.628 395.607 511.358 395.853 509.772C396.153 508.15 395.807 506.619 394.815 505.178C393.86 503.79 392.59 502.973 391.005 502.727C389.436 502.39 387.958 502.7 386.57 503.655L325.807 545.482C324.366 546.474 323.496 547.781 323.197 549.403C322.914 550.935 323.25 552.395 324.205 553.783C325.197 555.224 326.477 556.113 328.045 556.449C329.667 556.748 331.199 556.402 332.64 555.41ZM352.2 583.833L380.94 564.049C382.381 563.057 383.243 561.795 383.526 560.264C383.825 558.641 383.498 557.137 382.543 555.749C381.587 554.361 380.299 553.517 378.677 553.218C377.109 552.882 375.604 553.209 374.163 554.201L345.423 573.985C343.982 574.977 343.111 576.284 342.812 577.906C342.566 579.492 342.92 580.978 343.875 582.366C344.83 583.754 346.092 584.616 347.66 584.952C349.246 585.198 350.759 584.825 352.2 583.833Z" fill="#16A34A"/>
<path d="M508.749 603.578C503.185 605.68 498.122 606.633 493.56 606.436C490.42 606.301 487.518 605.622 484.853 604.397C478.4 601.432 473.388 595.221 469.817 585.765L417.725 447.83C414.131 438.313 413.774 430.309 416.656 423.817C419.575 417.243 425.732 412.181 435.126 408.632L458.219 399.908C459.795 399.312 461.232 399.358 462.53 400.045C463.866 400.649 464.844 401.769 465.462 403.406C465.53 403.587 465.61 403.8 465.702 404.042C465.794 404.284 465.874 404.497 465.942 404.679C468.163 410.558 471.733 414.509 476.651 416.53C481.608 418.467 487.086 418.302 493.086 416.035C499.087 413.768 503.276 410.281 505.654 405.573C508.069 400.782 508.166 395.446 505.946 389.566C505.877 389.384 505.797 389.172 505.705 388.93C505.614 388.687 505.534 388.475 505.465 388.293C504.847 386.657 504.809 385.182 505.352 383.868C505.933 382.471 507.011 381.475 508.587 380.88L531.679 372.156C541.074 368.607 549.009 368.345 555.485 371.371C561.998 374.313 567.052 380.543 570.646 390.06L622.738 527.995C626.309 537.452 626.624 545.437 623.682 551.951C622.517 554.62 620.811 557.04 618.562 559.211C615.29 562.369 610.87 564.999 605.302 567.103L508.749 603.578ZM474.528 471.151L543.534 445.083C545.109 444.487 546.207 443.449 546.825 441.969C547.504 440.466 547.534 438.896 546.916 437.259C546.321 435.683 545.283 434.586 543.803 433.968C542.361 433.266 540.851 433.212 539.276 433.808L470.27 459.876C468.634 460.495 467.476 461.555 466.797 463.059C466.156 464.478 466.133 465.976 466.728 467.552C467.346 469.189 468.376 470.358 469.819 471.06C471.322 471.739 472.892 471.769 474.528 471.151ZM486.718 503.43L519.357 491.1C520.994 490.482 522.133 489.463 522.774 488.043C523.453 486.54 523.495 485 522.899 483.424C522.304 481.848 521.255 480.72 519.752 480.041C518.31 479.34 516.77 479.298 515.134 479.916L482.495 492.246C480.858 492.864 479.7 493.925 479.022 495.428C478.403 496.909 478.392 498.437 478.987 500.013C479.582 501.589 480.601 502.728 482.043 503.43C483.524 504.048 485.082 504.048 486.718 503.43Z" fill="#FACC15"/>
<path d="M633.993 560.07C628.087 560.78 622.944 560.493 618.562 559.211C615.545 558.328 612.89 556.973 610.595 555.147C605.039 550.723 601.659 543.493 600.455 533.457L582.883 387.061C581.67 376.96 583.24 369.103 587.59 363.49C591.998 357.805 599.187 354.364 609.158 353.166L633.667 350.223C635.34 350.022 636.724 350.411 637.82 351.388C638.973 352.294 639.654 353.616 639.862 355.353C639.885 355.546 639.912 355.771 639.943 356.028C639.974 356.286 640.001 356.511 640.024 356.704C640.773 362.944 643.294 367.634 647.586 370.774C651.935 373.841 657.294 374.992 663.662 374.227C670.031 373.462 674.932 371.079 678.367 367.077C681.859 363.003 683.23 357.846 682.481 351.605C682.458 351.412 682.431 351.187 682.4 350.93C682.369 350.672 682.342 350.447 682.319 350.254C682.11 348.517 682.427 347.076 683.268 345.931C684.166 344.713 685.451 344.004 687.124 343.803L711.633 340.86C721.604 339.663 729.371 341.308 734.934 345.796C740.554 350.211 743.97 357.469 745.183 367.57L762.755 513.966C763.959 524.003 762.354 531.831 757.939 537.452C756.17 539.765 753.933 541.706 751.23 543.275C747.298 545.558 742.377 547.055 736.468 547.764L633.993 560.07ZM632.455 423.3L705.692 414.505C707.365 414.304 708.678 413.559 709.633 412.27C710.652 410.973 711.057 409.456 710.848 407.719C710.648 406.046 709.903 404.732 708.614 403.778C707.381 402.751 705.928 402.338 704.256 402.539L631.018 411.334C629.281 411.542 627.903 412.295 626.885 413.592C625.922 414.817 625.542 416.266 625.742 417.939C625.951 419.676 626.671 421.058 627.904 422.085C629.201 423.104 630.718 423.509 632.455 423.3ZM636.567 457.559L671.207 453.399C672.944 453.191 674.294 452.474 675.256 451.249C676.275 449.952 676.684 448.467 676.483 446.794C676.283 445.121 675.534 443.775 674.237 442.756C673.004 441.73 671.519 441.321 669.783 441.529L635.142 445.689C633.405 445.898 632.027 446.651 631.008 447.948C630.054 449.237 629.677 450.718 629.878 452.391C630.078 454.064 630.795 455.413 632.028 456.44C633.317 457.395 634.83 457.768 636.567 457.559Z" fill="#EA580C"/>
<path d="M793.036 448.886L827.665 453.138C829.401 453.351 830.883 452.978 832.111 452.019C833.41 451.004 834.163 449.66 834.368 447.988C834.573 446.316 834.168 444.83 833.153 443.53C832.202 442.238 830.858 441.485 829.122 441.272L794.493 437.02C792.756 436.807 791.238 437.208 789.939 438.224C788.703 439.247 787.983 440.595 787.778 442.267C787.572 443.939 787.945 445.421 788.896 446.713C789.92 447.949 791.299 448.673 793.036 448.886Z" fill="#B91C1C"/>
<path d="M797.241 414.638L870.454 423.628C872.126 423.833 873.58 423.424 874.815 422.401C876.115 421.385 876.871 420.009 877.085 418.273C877.29 416.6 876.881 415.147 875.858 413.911C874.907 412.619 873.595 411.871 871.923 411.665L798.71 402.676C796.973 402.463 795.455 402.864 794.156 403.879C792.928 404.838 792.212 406.154 792.006 407.826C791.793 409.563 792.162 411.077 793.113 412.369C794.129 413.669 795.504 414.425 797.241 414.638Z" fill="#B91C1C"/>
<path d="M632.455 423.3L705.692 414.505C707.365 414.304 708.678 413.559 709.633 412.27C710.652 410.973 711.057 409.456 710.848 407.719C710.648 406.046 709.903 404.732 708.614 403.778C707.381 402.751 705.928 402.338 704.256 402.539L631.018 411.334C629.281 411.542 627.903 412.295 626.885 413.592C625.922 414.817 625.542 416.266 625.742 417.939C625.951 419.676 626.671 421.058 627.904 422.085C629.201 423.104 630.718 423.509 632.455 423.3Z" fill="#C2410C"/>
<path d="M636.567 457.559L671.207 453.399C672.944 453.191 674.294 452.474 675.256 451.249C676.275 449.952 676.684 448.467 676.483 446.794C676.283 445.121 675.534 443.775 674.237 442.756C673.004 441.73 671.519 441.321 669.783 441.529L635.142 445.689C633.405 445.898 632.027 446.651 631.008 447.948C630.054 449.237 629.677 450.718 629.878 452.391C630.078 454.064 630.795 455.413 632.028 456.44C633.317 457.395 634.83 457.768 636.567 457.559Z" fill="#C2410C"/>
<path d="M474.528 471.151L543.534 445.083C545.109 444.487 546.207 443.449 546.825 441.969C547.504 440.466 547.534 438.896 546.916 437.259C546.321 435.683 545.283 434.586 543.803 433.968C542.361 433.266 540.851 433.212 539.276 433.808L470.27 459.876C468.634 460.495 467.476 461.555 466.797 463.059C466.156 464.478 466.133 465.976 466.728 467.552C467.346 469.189 468.376 470.358 469.819 471.06C471.322 471.739 472.892 471.769 474.528 471.151Z" fill="#CA8A04"/>
<path d="M486.718 503.43L519.357 491.1C520.994 490.482 522.133 489.463 522.774 488.043C523.453 486.54 523.495 485 522.899 483.424C522.304 481.848 521.255 480.72 519.752 480.041C518.31 479.34 516.77 479.298 515.134 479.916L482.495 492.246C480.858 492.864 479.7 493.925 479.022 495.428C478.403 496.909 478.392 498.437 478.987 500.013C479.582 501.589 480.601 502.728 482.043 503.43C483.524 504.048 485.082 504.048 486.718 503.43Z" fill="#CA8A04"/>
<path d="M332.64 555.41L393.403 513.583C394.79 512.628 395.607 511.358 395.853 509.772C396.153 508.15 395.807 506.619 394.815 505.178C393.86 503.79 392.59 502.973 391.005 502.727C389.436 502.39 387.958 502.7 386.57 503.655L325.807 545.482C324.366 546.474 323.496 547.781 323.197 549.403C322.914 550.935 323.25 552.395 324.205 553.783C325.197 555.224 326.477 556.113 328.045 556.449C329.667 556.748 331.199 556.402 332.64 555.41Z" fill="#15803D"/>
<path d="M352.2 583.833L380.94 564.049C382.381 563.057 383.243 561.795 383.526 560.264C383.825 558.641 383.498 557.137 382.543 555.749C381.587 554.361 380.299 553.517 378.677 553.218C377.109 552.882 375.604 553.209 374.163 554.201L345.423 573.985C343.982 574.977 343.111 576.284 342.812 577.906C342.566 579.492 342.92 580.978 343.875 582.366C344.83 583.754 346.092 584.616 347.66 584.952C349.246 585.198 350.759 584.825 352.2 583.833Z" fill="#15803D"/>
<path d="M947.032 477.915L979.637 490.332C981.272 490.955 982.8 490.947 984.222 490.31C985.727 489.635 986.779 488.51 987.378 486.936C987.978 485.361 987.94 483.821 987.265 482.316C986.651 480.834 985.526 479.782 983.891 479.159L951.286 466.743C949.651 466.12 948.081 466.146 946.577 466.821C945.132 467.519 944.11 468.656 943.511 470.23C942.911 471.805 942.919 473.333 943.533 474.815C944.231 476.259 945.397 477.293 947.032 477.915Z" fill="#6D28D9"/>
<path d="M959.31 445.669L1028.24 471.921C1029.82 472.52 1031.33 472.471 1032.77 471.773C1034.28 471.098 1035.34 469.943 1035.96 468.308C1036.56 466.733 1036.51 465.224 1035.82 463.779C1035.2 462.297 1034.11 461.257 1032.53 460.657L963.599 434.405C961.964 433.783 960.394 433.809 958.889 434.484C957.468 435.122 956.457 436.228 955.858 437.802C955.235 439.437 955.231 440.996 955.846 442.478C956.52 443.983 957.675 445.046 959.31 445.669Z" fill="#6D28D9"/>
<path d="M1109.24 514.589L1169.89 556.577C1171.28 557.536 1172.75 557.849 1174.32 557.517C1175.95 557.222 1177.26 556.355 1178.25 554.916C1179.21 553.531 1179.52 552.054 1179.19 550.484C1178.95 548.898 1178.14 547.626 1176.75 546.667L1116.1 504.679C1114.66 503.683 1113.13 503.333 1111.51 503.628C1109.98 503.907 1108.73 504.739 1107.77 506.124C1106.78 507.562 1106.4 509.075 1106.64 510.661C1106.94 512.283 1107.81 513.593 1109.24 514.589Z" fill="#1D4ED8"/>
<path d="M1089.61 542.96L1118.29 562.82C1119.73 563.815 1121.22 564.174 1122.75 563.895C1124.37 563.6 1125.66 562.76 1126.62 561.374C1127.58 559.989 1127.91 558.485 1127.62 556.862C1127.38 555.276 1126.53 553.985 1125.1 552.99L1096.41 533.13C1094.97 532.134 1093.44 531.784 1091.82 532.079C1090.25 532.411 1088.99 533.269 1088.03 534.655C1087.07 536.04 1086.71 537.526 1086.95 539.112C1087.28 540.681 1088.17 541.964 1089.61 542.96Z" fill="#1D4ED8"/>
</g>
<defs>
<clipPath id="clip0_207_944">
<rect width="1500" height="522" fill="white"/>
</clipPath>
</defs>
</svg>
